<svg xmlns="http://www.w3.org/2000/svg" style="display: none;">
  <symbol id="stick-man" x="0px" y="0px" viewBox="0 0 512 512" style="enable-background:new 0 0 512 512;" xml:space="preserve">
    <path style="fill:#F14742;" d="M512,48.64c0-12.516-10.24-22.756-22.756-22.756H22.756C10.24,25.884,0,36.124,0,48.64v278.756
    l256.436,22.756L512,327.396V48.64z"/>
    <path style="fill:#FFFFFF;" d="M256,198.827c-52.156,0-94.436,42.28-94.436,94.436h188.871
    C350.436,241.107,308.156,198.827,256,198.827z"/>
    <circle style="fill:#FAD4C6;" cx="256" cy="118.044" r="58.027"/>
    <rect x="197.814" y="363.804" style="fill:#8B7E7F;" width="116.361" height="113.778"/>
    <g>
    <path style="fill:#C2B8B9;" d="M395.636,486.116H116.364c-4.713,0-8.533-3.821-8.533-8.533s3.821-8.533,8.533-8.533h279.272
    c4.713,0,8.533,3.821,8.533,8.533S400.349,486.116,395.636,486.116z"/>
    <path style="fill:#C2B8B9;" d="M0,327.396v36.409c0,12.516,10.24,22.756,22.756,22.756h466.489
    c12.516,0,22.756-10.24,22.756-22.756v-36.409H0z"/>
    </g>
  </symbol>

  <symbol id="monitor" x="0px" y="0px" viewBox="0 0 512 512" style="enable-background:new 0 0 512 512;" xml:space="preserve">
    <path style="fill:#F14742;" d="M512,48.64c0-12.516-10.24-22.756-22.756-22.756H22.756C10.24,25.884,0,36.124,0,48.64v278.756
    l256.436,22.756L512,327.396V48.64z"/>
    <rect x="197.814" y="363.804" style="fill:#8B7E7F;" width="116.361" height="113.778"/>
    <g>
    <path style="fill:#C2B8B9;" d="M395.636,486.116H116.364c-4.713,0-8.533-3.821-8.533-8.533s3.821-8.533,8.533-8.533h279.272
    c4.713,0,8.533,3.821,8.533,8.533S400.349,486.116,395.636,486.116z"/>
    <path style="fill:#C2B8B9;" d="M0,327.396v36.409c0,12.516,10.24,22.756,22.756,22.756h466.489
    c12.516,0,22.756-10.24,22.756-22.756v-36.409H0z"/>
    </g>
  </symbol>

<symbol id="paint-set" viewBox="0 0 102 100">
  <path fill="#E6E7F1" d="M24.467 30.859c-4.58-26.454 35.159-27.472 40.75-13.708 6.315 15.545 7.862 18.965 20.061 19.571 12.326.612 11.601 29.897-7.156 25.812-21.286-4.636-22.914 22.204-35.787 23.855-15.249 1.955-26.173-2.327-31.684-17.11-7.195-19.302 17.774-15.558 13.816-38.42z"/><path fill="#E6E7F1" d="M25.458 30.586c-1.42-8.748 2.69-16.195 11.031-19.353 6.834-2.587 15.469-2.624 22.063.733 8.058 4.102 7.83 14.626 13.485 20.994 2.48 2.794 5.881 3.984 9.507 4.462 3.872.51 7.058.288 9.226 4.048 3.367 5.841 2.097 15.738-4.175 19.199-4.292 2.368-8.654.299-13.176.301-4.107.001-7.938 1.426-11.14 3.967-6.239 4.952-8.957 12.944-14.979 18.022-3.686 3.109-8.933 3.032-13.521 2.796-5.431-.28-10.794-1.903-14.909-5.568-4.181-3.724-7.326-9.437-8.292-14.947-.674-3.847.526-7.135 3.15-9.948 5.066-5.431 11.067-9.187 12.041-17.204.304-2.51.093-5.015-.311-7.502-.211-1.3-2.193-.749-1.983.546.843 5.193.292 10.341-2.984 14.609-2.358 3.073-5.591 5.285-8.218 8.1-2.436 2.611-4.022 5.712-3.957 9.346.094 5.299 2.835 10.924 5.992 15.06 3.227 4.227 7.688 7.204 12.835 8.571 5.16 1.37 11.782 1.772 16.944.249 7.727-2.279 11.29-11.763 16.183-17.337 3.17-3.61 7.144-6.378 12.078-6.676 4.833-.293 9.339 1.923 14.069-.033 7.092-2.932 9.339-12.02 7.596-18.887-.804-3.169-2.621-6.325-5.712-7.72-3.89-1.755-8.454-.49-12.298-2.784-8.155-4.866-6.785-17.063-14.526-22.327-12.274-8.345-36.08-3.824-38.232 12.837-.302 2.342-.148 4.669.229 6.993.212 1.299 2.194.748 1.984-.547z"/><g fill="#FBB563"><path d="M45.046 24.295h-31.39V5.464c0-2.451 1.991-4.438 4.447-4.438s4.447 1.987 4.447 4.438v5.896c0 1.667 1.354 3.019 3.025 3.019 1.671 0 3.025-1.352 3.025-3.019V8.844c0-1.843 1.497-3.337 3.344-3.337 1.847 0 3.344 1.494 3.344 3.337v8.598c0 1.262 1.025 2.285 2.289 2.285h2.891c2.528-.001 4.578 2.045 4.578 4.568z"/><path d="M45.046 25.321h-31.39c-.568 0-1.028-.459-1.028-1.026V5.464C12.627 2.451 15.083 0 18.103 0s5.475 2.451 5.475 5.464v5.895c0 1.099.896 1.993 1.997 1.993s1.997-.894 1.997-1.993V8.844c0-2.406 1.961-4.363 4.372-4.363s4.372 1.957 4.372 4.363v8.598c0 .694.565 1.259 1.261 1.259h2.891c3.091 0 5.607 2.51 5.607 5.595-.001.566-.461 1.025-1.029 1.025zm-30.362-2.052h29.183c-.442-1.455-1.798-2.517-3.399-2.517h-2.891c-1.829 0-3.317-1.485-3.317-3.311V8.844c0-1.274-1.039-2.311-2.316-2.311s-2.316 1.037-2.316 2.311v2.516c0 2.231-1.818 4.045-4.053 4.045s-4.053-1.815-4.053-4.045V5.464c0-1.881-1.534-3.412-3.419-3.412s-3.419 1.531-3.419 3.412v17.805z"/></g><path fill="#E6E7F1" d="M51.163 47.429h46.999v51.032H51.163z"/><path fill="#B9BAD5" d="M74.793 92.312h23.586V57.346H74.793c-1.172 0-2.122.95-2.122 2.122V90.19c0 1.172.95 2.122 2.122 2.122z"/><ellipse cx="90.599" cy="81.938" fill="#FBB563" rx="4.145" ry="4.137"/><path fill="#5F5371" d="M90.599 87.101c-2.853 0-5.173-2.316-5.173-5.162s2.32-5.163 5.173-5.163 5.173 2.317 5.173 5.163-2.32 5.162-5.173 5.162zm0-8.274c-1.719 0-3.117 1.396-3.117 3.111 0 1.715 1.398 3.11 3.117 3.11s3.117-1.395 3.117-3.11c0-1.715-1.398-3.111-3.117-3.111zM79.75 71.673h18.411v2.052H79.75zm0-4.3h18.411v2.052H79.75zm0-4.3h18.411v2.052H79.75z"/><g fill="#FBB563"><path d="M98.162 50.015c0-1.655-1.37-2.997-3.059-2.997H54.222c-1.69 0-3.059 1.342-3.059 2.997 0 1.655 1.37 2.997 3.059 2.997h.23c1.69 0 3.059 1.342 3.059 2.997v8.698c0 3.215 2.661 5.822 5.943 5.822 3.282 0 5.943-2.607 5.943-5.822v-7.734c0-2.187 1.81-3.96 4.043-3.96s4.043 1.773 4.043 3.96v3.3c0 2.418 2.001 4.378 4.469 4.378 2.468 0 4.469-1.96 4.469-4.378v-4.135c0-1.726 1.428-3.125 3.19-3.125H95.1c1.692-.001 3.062-1.343 3.062-2.998z"/><path d="M63.455 71.555c-3.844 0-6.971-3.072-6.971-6.848v-8.699c0-1.087-.912-1.971-2.031-1.971h-.231c-2.254 0-4.087-1.805-4.087-4.023s1.833-4.023 4.087-4.023h40.88c2.254 0 4.087 1.805 4.087 4.023s-1.833 4.023-4.087 4.023h-5.489c-1.192 0-2.162.942-2.162 2.099v4.135c0 2.98-2.466 5.404-5.497 5.404-3.031 0-5.497-2.424-5.497-5.404v-3.3c0-1.618-1.352-2.935-3.015-2.935s-3.015 1.317-3.015 2.935v7.735c0 3.777-3.128 6.849-6.972 6.849zm-9.233-23.511c-1.12 0-2.031.884-2.031 1.971s.912 1.97 2.031 1.97h.231c2.254 0 4.087 1.805 4.087 4.023v8.699c0 2.644 2.205 4.796 4.915 4.796s4.915-2.151 4.915-4.796v-7.735c0-2.75 2.275-4.987 5.071-4.987s5.071 2.238 5.071 4.987v3.3c0 1.848 1.543 3.352 3.441 3.352s3.441-1.504 3.441-3.352v-4.135c0-2.289 1.893-4.151 4.218-4.151h5.489c1.12 0 2.031-.884 2.031-1.97s-.912-1.971-2.031-1.971H54.222z"/></g><path fill="#5F5371" d="M98.162 99.487H51.163c-.568 0-1.028-.459-1.028-1.026V47.429c0-.567.46-1.026 1.028-1.026h46.999c.568 0 1.028.459 1.028 1.026v51.032c0 .567-.46 1.026-1.028 1.026zm-45.971-2.052h44.942v-48.98H52.191v48.98z"/><path fill="#5F5371" d="M100.458 100H48.867c-.852 0-1.542-.689-1.542-1.539s.69-1.539 1.542-1.539h51.591c.851 0 1.542.689 1.542 1.539s-.691 1.539-1.542 1.539zm0-51.032H48.867c-.852 0-1.542-.689-1.542-1.539s.69-1.539 1.542-1.539h51.591c.851 0 1.542.689 1.542 1.539s-.691 1.539-1.542 1.539zM63.697 59.8c-1.261 0-2.287-1.024-2.287-2.283s1.026-2.283 2.287-2.283 2.287 1.024 2.287 2.283-1.025 2.283-2.287 2.283zm0-2.513c-.128 0-.231.103-.231.23 0 .255.462.255.462 0 0-.127-.103-.23-.231-.23z"/><path fill="#5F5371" d="M34.118 58.691c-.568 0-1.028-.459-1.028-1.026v-5.78L6.475 45.26C2.663 44.311 0 40.91 0 36.989v-5.808c0-.273.109-.534.302-.727.193-.191.454-.299.726-.299h.004l65.225.212c.568.002 1.027.463 1.025 1.03-.002.565-.462 1.023-1.028 1.023h-.003l-64.195-.21v4.779c0 2.977 2.022 5.559 4.916 6.28l27.395 6.82c.458.114.779.525.779.996v6.581c0 .566-.46 1.025-1.028 1.025z"/><path fill="#857B98" d="M29.351 56.651h9.534v31.43h-9.534z"/><path fill="#5F5371" d="M38.885 89.107h-9.534c-.568 0-1.028-.459-1.028-1.026v-31.43c0-.567.46-1.026 1.028-1.026h9.534c.568 0 1.028.459 1.028 1.026v31.43c0 .567-.46 1.026-1.028 1.026zm-8.506-2.052h7.478V57.677h-7.478v29.378z"/><path fill="#857B98" d="M8.322 24.819h53.629v12.724H8.322z"/><path fill="#5F5371" d="M61.951 38.569H8.322c-.568 0-1.028-.459-1.028-1.026V24.819c0-.567.46-1.026 1.028-1.026h53.629c.568 0 1.028.459 1.028 1.026v12.724c.001.566-.459 1.026-1.028 1.026zM9.35 36.516h51.573V25.845H9.35v10.671z"/><path fill="#857B98" d="M63.21 27.412v7.962"/><path fill="#5F5371" d="M63.21 36.401c-.568 0-1.028-.459-1.028-1.026v-7.963c0-.567.46-1.026 1.028-1.026s1.028.459 1.028 1.026v7.963c0 .566-.46 1.026-1.028 1.026z"/><path fill="#857B98" d="M7.291 27.412v7.962"/><path fill="#5F5371" d="M7.291 36.401c-.568 0-1.028-.459-1.028-1.026v-7.963c0-.567.46-1.026 1.028-1.026s1.028.459 1.028 1.026v7.963c.001.566-.46 1.026-1.028 1.026z"/><g fill="#FBB563"><path d="M8.397 24.698h53.554v12.845H8.397z"/><path d="M61.951 38.056H8.397c-.284 0-.514-.229-.514-.513V24.698c0-.284.23-.513.514-.513h53.555c.284 0 .514.229.514.513v12.845c0 .283-.23.513-.515.513zm-53.04-1.027h52.526V25.211H8.911v11.818z"/></g><path fill="#5F5371" d="M61.951 38.569H8.322c-.568 0-1.028-.459-1.028-1.026V24.819c0-.567.46-1.026 1.028-1.026h53.629c.568 0 1.028.459 1.028 1.026v12.724c.001.566-.459 1.026-1.028 1.026zM9.35 36.516h51.573V25.845H9.35v10.671z"/><path fill="#857B98" d="M54.376 55.929v37.8"/><path fill="#FFF" d="M54.376 94.754c-.568 0-1.028-.459-1.028-1.026v-37.8c0-.567.46-1.026 1.028-1.026.568 0 1.028.459 1.028 1.026v37.8c0 .567-.46 1.026-1.028 1.026z"/><path fill="#857B98" d="M32.438 59.221v26.096"/><path fill="#B9BAD5" d="M32.438 86.343c-.568 0-1.028-.459-1.028-1.026V59.221c0-.567.46-1.026 1.028-1.026.568 0 1.028.459 1.028 1.026v26.096c0 .567-.46 1.026-1.028 1.026z"/><path fill="#5F5371" d="M47.135 74.604c-.263 0-.526-.1-.727-.301-.402-.401-.402-1.05 0-1.451l16.563-16.529c.402-.401 1.052-.401 1.454 0 .402.401.402 1.05 0 1.451L47.862 74.303c-.201.2-.464.301-.727.301z"/><path fill="#FDEED1" d="M57.971 29.502H12.434c-.568 0-1.028-.459-1.028-1.026s.46-1.026 1.028-1.026h45.537c.568 0 1.028.459 1.028 1.026.001.566-.459 1.026-1.028 1.026z"/><path fill="#E6E7F1" d="M74.362 14.686c4.208-4.713 14.006 8.616 10.433 11.872-5.547 5.054-12.679-9.357-10.433-11.872z"/><path fill="#E6E7F1" d="M75.089 15.411c3.324-3.374 11.533 7.094 9.073 10.319-2.206 2.892-5.784-1.463-6.87-3.18-.933-1.475-3.383-5.563-2.042-7.347.794-1.057-.99-2.081-1.776-1.036-2.166 2.881 1.239 8.486 2.967 10.745 2.1 2.746 6.464 5.653 9.349 2.071 2.418-3.002-.76-7.907-2.711-10.254-2.149-2.584-6.351-5.91-9.444-2.77-.929.944.524 2.396 1.454 1.452z"/>
</symbol>

<symbol id="price-tag" 
  x="0px" y="0px"
  viewBox="0 0 55.568 55.568" 
  style="enable-background:new 0 0 55.568 55.568;" 
  xml:space="preserve">
  <path style="fill:#E3CDA4;" d="M44.472,0.784H31.294L6.848,25.151l23.734,23.785L55,24.599V11.288L44.472,0.784z M43.015,15.654
  c-1.621,0-2.935-1.314-2.935-2.935s1.314-2.935,2.935-2.935c1.621,0,2.935,1.314,2.935,2.935S44.636,15.654,43.015,15.654z"/>
  <polygon style="fill:#CBB895;" points="6.877,25.138 1,30.999 24.734,54.784 30.637,48.898 "/>
  <path style="fill:#BFA380;" d="M43.015,9.784c1.621,0,2.935,1.314,2.935,2.935s-1.314,2.935-2.935,2.935
  c-1.621,0-2.935-1.314-2.935-2.935S41.394,9.784,43.015,9.784 M43.015,5.784c-3.824,0-6.935,3.111-6.935,6.935
  s3.111,6.935,6.935,6.935c3.824,0,6.935-3.111,6.935-6.935S46.839,5.784,43.015,5.784L43.015,5.784z"/>
  <path style="fill:#D75A4A;" d="M53.866,26.284c-0.07-0.121-0.161-0.22-0.266-0.299l-1.412,1.398
  c0.526,0.983,4.22,8.578-2.895,15.694c-2.741,2.739-9.128,3.895-13.912,1.172c-4.812-2.738-6.378-8.497-4.412-16.218
  c0.137-0.535-0.187-1.08-0.722-1.216c-0.537-0.143-1.079,0.187-1.216,0.722c-2.98,11.703,2.079,16.583,5.36,18.45
  c2.143,1.219,4.695,1.809,7.215,1.808c3.501,0,6.935-1.138,9.101-3.304C59.275,35.923,53.921,26.38,53.866,26.284z"/>
  <path style="fill:#D75A4A;" d="M43.764,15.546c0.698-0.185,1.299-0.61,1.69-1.195L42.6,11.984
  C22.251-3.278,0.636,11.816,0.419,11.971c-0.449,0.32-0.554,0.945-0.232,1.395s0.946,0.554,1.395,0.232
  c0.203-0.145,20.627-14.409,39.78-0.044L43.764,15.546z"/>
</symbol> 

<symbol id="shop-model" viewBox="0 0 445.357 445.357" style="enable-background:new 0 0 445.357 445.357;" xml:space="preserve">
  <g>
  <path style="fill:#FC7A51;" d="M269.22,264.928c0,17-10.58,31.52-25.51,37.34c-4.51,1.76-9.42,2.73-14.55,2.73
    c-22.13,0-40.07-17.94-40.07-40.07c0-19.121,13.399-35.11,31.32-39.1c2.82-0.63,5.74-0.96,8.75-0.96
    C251.28,224.867,269.22,242.798,269.22,264.928"/>
  <path style="fill:#FDA589;" d="M229.16,224.867c-3.01,0-5.93,0.33-8.75,0.96l23.3,76.44c14.93-5.82,25.51-20.34,25.51-37.34
    C269.22,242.798,251.28,224.867,229.16,224.867"/>
  <path style="fill:#86D359;" d="M128.26,267.217c0,26.8-16.44,49.76-39.79,59.341c-7.5,3.09-15.719,4.79-24.34,4.79
    c-35.42,0-64.13-28.71-64.13-64.13c0-30.99,22-56.86,51.24-62.83c4.16-0.84,8.469-1.29,12.89-1.29
    C99.55,203.097,128.26,231.808,128.26,267.217"/>
  <path style="fill:#ADE18E;" d="M64.13,203.097c-4.42,0-8.73,0.45-12.89,1.29l37.229,122.17c23.35-9.581,39.79-32.54,39.79-59.341
    C128.26,231.808,99.55,203.097,64.13,203.097"/>
  <path style="fill:#B3B3B3;" d="M384.134,328.444c-33.758,0-61.223-27.464-61.223-61.222S350.376,206,384.134,206
    s61.223,27.464,61.223,61.222S417.892,328.444,384.134,328.444z M384.134,218.999c-26.59,0-48.223,21.633-48.223,48.222
    s21.633,48.222,48.223,48.222s48.223-21.633,48.223-48.222S410.724,218.999,384.134,218.999z"/>
  <path style="fill:#29ABE2;" d="M397.684,236.741l-3.611,3.991l15.372,13.908h-50.62l15.372-13.908l-3.611-3.991l-21.74,19.669
    l10.026,41.292h10.105h30.318h10.104l10.026-41.292L397.684,236.741z M381.442,267.167h-11.138l-0.96-7.144h12.098V267.167z
     M386.825,260.023h12.098l-0.959,7.144h-11.138L386.825,260.023L386.825,260.023z M364.873,267.167h-7.878l-1.735-7.144h8.653
    L364.873,267.167z M358.302,272.55h7.294l1.012,7.536h-6.477L358.302,272.55z M371.027,272.55h10.415v7.536h-9.403L371.027,272.55z
     M386.825,272.55h10.415l-1.012,7.536h-9.403V272.55z M402.671,272.55h7.294l-1.83,7.536h-6.477L402.671,272.55z M403.394,267.167
    l0.96-7.144h8.653l-1.735,7.144H403.394z M363.102,292.319l-1.664-6.851h5.893l0.92,6.851H363.102z M372.763,285.469h8.68v6.851
    h-7.76L372.763,285.469z M386.825,292.319v-6.851h8.68l-0.92,6.851H386.825z M400.016,292.319l0.92-6.851h5.893l-1.664,6.851
    H400.016z"/>
  <path style="fill:#FFFFFF;" d="M87.394,282.716c0-12.828-10.436-23.264-23.264-23.264c-4.262,0-7.729-3.467-7.729-7.729
    c0-4.262,3.467-7.729,7.729-7.729h15.497V228.46h-7.733v-13.334H56.359v14.698c-9.012,3.208-15.493,11.801-15.493,21.9
    c0,12.827,10.436,23.263,23.263,23.263c4.262,0,7.73,3.467,7.73,7.729s-3.468,7.729-7.73,7.729H48.634v15.534h7.726v13.338h15.534
    v-14.698C80.909,301.413,87.394,292.818,87.394,282.716z"/>
  <path style="fill:#FCD18B;" d="M286.76,352.297c-3.66-3.77-9.69-3.82-13.4-0.11l-13.16,13.17c-7.57,7.56-20.5,2.2-20.5-8.49
    v-80.072c0-4.951-3.723-9.268-8.661-9.623c-2.85-0.205-5.461,0.876-7.289,2.715c-1.7,1.69-2.74,4.03-2.74,6.61v40.98
    c0-2.52-0.99-4.81-2.62-6.5c-0.63-0.67-1.37-1.24-2.17-1.7c-1.36-0.77-2.94-1.21-4.62-1.21c-2.6,0-4.94,1.05-6.65,2.76
    c-1.7,1.7-2.75,4.05-2.75,6.65v3.2c0-2.52-1-4.81-2.61-6.5c-0.67-0.71-1.46-1.31-2.32-1.78c-1.33-0.72-2.86-1.13-4.48-1.13
    c-2.6,0-4.95,1.05-6.65,2.75c-1.7,1.71-2.76,4.06-2.76,6.66v7.88c0-2.52-0.99-4.82-2.61-6.5l-0.14-0.15
    c-0.51-0.51-1.07-0.96-1.69-1.34c-1.75-1.102-3.92-1.634-6.197-1.34c-4.736,0.611-8.173,4.846-8.173,9.622v45.959
    c0,2.87,0.49,5.7,1.43,8.37c0.95,2.67,2.35,5.18,4.16,7.41l0.072,0.088c5.454,6.66,8.662,14.871,8.662,23.479v16.198h60.932
    v-13.932c0-6.245,3.554-11.871,9.076-14.787l0.088-0.047c5.58-2.98,10.66-6.88,15-11.58l20.53-22.22l2.39-2.58
    c1.14-1.23,1.89-2.7,2.23-4.24C289.86,357.957,289.06,354.667,286.76,352.297z"/>
  <path style="fill:#DDB57A;" d="M183.382,328.554v20.898c0,0.722-0.587,1.301-1.309,1.301c-0.722,0-1.302-0.579-1.302-1.301v-27.398
    C182.389,323.739,183.382,326.034,183.382,328.554z"/>
  <path style="fill:#DDB57A;" d="M202.197,320.677v23.712c0,0.722-0.587,1.309-1.309,1.309c-0.722,0-1.301-0.587-1.301-1.309v-30.212
    C201.204,315.87,202.197,318.157,202.197,320.677z"/>
  <path style="fill:#DDB57A;" d="M221.011,317.48v30.234c0,0.722-0.587,1.309-1.309,1.309c-0.722,0-1.309-0.587-1.309-1.309V310.98
    C220.019,312.665,221.011,314.952,221.011,317.48z"/>
  <path style="fill:#FFFFFF;" d="M236.355,276.485c0-3.314-2.686-6-6-6s-6,2.686-6,6s2.686,3.489,6,3.489
    S236.355,279.799,236.355,276.485z"/>
  <path style="fill:#FFFFFF;" d="M289.14,360.967c-0.34,1.54-1.09,3.01-2.23,4.24l-2.39,2.58l-6.71-6.72
    C280.93,357.947,285.97,357.907,289.14,360.967z"/>
  <path style="fill:#999999;" d="M264.719,66.133v-7h-66.597c-18.49,0-35.372,10.504-43.543,27.09
    c-1.376,2.786-2.038,5.771-2.035,8.663c0.007,5.197,2.066,10.047,5.536,13.651c1.738,1.803,3.846,3.299,6.239,4.342
    c2.391,1.044,5.068,1.626,7.853,1.623h118.495c2.785,0.002,5.462-0.579,7.853-1.623c3.593-1.568,6.53-4.142,8.568-7.265
    c2.038-3.124,3.206-6.833,3.207-10.728c0.003-2.892-0.659-5.876-2.033-8.661c-8.172-16.588-25.054-27.091-43.543-27.091V66.133v7
    c13.156,0,25.17,7.474,30.984,19.276c0.424,0.868,0.59,1.675,0.593,2.476c0.007,1.424-0.596,2.883-1.613,3.932
    c-0.506,0.524-1.098,0.94-1.758,1.228c-0.662,0.286-1.39,0.455-2.258,0.457H172.173c-0.868-0.002-1.596-0.17-2.258-0.457
    c-0.986-0.429-1.836-1.159-2.439-2.084c-0.604-0.924-0.933-2.005-0.931-3.076c0.003-0.801,0.169-1.607,0.594-2.476
    c5.813-11.802,17.828-19.277,30.984-19.277h66.597v-6.999H264.719z"/>
  <path style="fill:#999999;" d="M238.421,66.133L238.421,66.133c0-9.091-4.227-17.739-11.594-23.226
    c-0.948-0.705-1.732-1.628-2.272-2.679c-0.539-1.054-0.842-2.224-0.844-3.513c0-0.171,0.005-0.334,0.015-0.489l0.008-0.123
    l-0.007,0.106c0.115-1.876,0.939-3.608,2.258-4.931c1.322-1.318,3.055-2.142,4.931-2.258c0.171-0.011,0.339-0.016,0.504-0.016
    c1.083,0.001,2.08,0.216,2.999,0.603c1.375,0.58,2.566,1.567,3.398,2.801c0.832,1.239,1.31,2.684,1.313,4.305h14
    c0.001-2.978-0.608-5.852-1.709-8.453c-1.653-3.905-4.397-7.205-7.858-9.545c-3.456-2.34-7.671-3.714-12.142-3.712
    c-0.456,0-0.914,0.014-1.373,0.043c-5.448,0.339-10.358,2.724-13.962,6.331c-3.607,3.603-5.992,8.514-6.331,13.963l0.001-0.016
    c-0.031,0.475-0.044,0.938-0.044,1.388c-0.002,3.547,0.862,6.94,2.39,9.91c1.528,2.973,3.712,5.536,6.366,7.513
    c3.739,2.778,5.952,7.242,5.953,11.995l0,0h14V66.133z"/>
  <rect x="137.03" y="265.307" style="fill:#2BE0C6;" width="30" height="9"/>
  <rect x="285.53" y="265.307" style="fill:#2BE0C6;" width="30" height="9"/>
  <rect x="224.657" y="138.129" style="fill:#2BE0C6;" width="9" height="64.678"/>
  
    <rect x="315.138" y="108.41" transform="matrix(-0.7071 -0.7071 0.7071 -0.7071 422.031 524.4751)" style="fill:#2BE0C6;" width="8.999" height="132.845"/>
  
    <rect x="73.018" y="170.649" transform="matrix(-0.7071 -0.7071 0.7071 -0.7071 113.4395 397.2858)" style="fill:#2BE0C6;" width="131.964" height="8.999"/>
  <path style="fill:#808080;" d="M396.886,106.948l26.241,26.241c2.343,2.343,6.142,2.343,8.485,0s2.343-6.142,0-8.485
    l-26.241-26.241c-2.343-2.343-6.142-2.343-8.485,0C394.543,100.805,394.543,104.604,396.886,106.948"/>
  <path style="fill:#29ABE2;" d="M405.725,107.301c-12.485,12.485-32.799,12.485-45.284,0s-12.485-32.799,0-45.284
    s32.8-12.485,45.285,0C418.21,74.501,418.21,94.816,405.725,107.301z M369.633,71.209c-7.416,7.416-7.416,19.483,0,26.899
    c7.417,7.416,19.483,7.417,26.899,0c7.417-7.416,7.417-19.484,0-26.9C389.117,63.793,377.049,63.793,369.633,71.209z"/>
  <path style="fill:#F9DE58;" d="M86.53,122.815h-52v-52h52V122.815z M42.53,114.815h36v-36h-36V114.815z"/>
  <path style="fill:#F9DE58;" d="M76.08,74.815h-8v-22.45c0-2.021-0.784-3.917-2.208-5.342c-1.425-1.424-3.321-2.208-5.342-2.208
    c-4.163,0-7.55,3.387-7.55,7.55v22.45h-8v-22.45c0-8.574,6.976-15.55,15.55-15.55c4.157,0,8.063,1.616,10.998,4.552
    c2.936,2.935,4.552,6.841,4.552,10.999V74.815z"/>
  </g>
</symbol>

<symbol id="template-code" 
  x="0px" y="0px"
  viewBox="0 0 491.52 491.52" 
  style="enable-background:new 0 0 491.52 491.52;" xml:space="preserve">
  <path style="fill:#64798A;" d="M469.453,0H22.067C9.88,0,0,9.88,0,22.067v447.386c0,12.188,9.88,22.067,22.067,22.067h447.387
    c12.185,0,22.067-9.88,22.067-22.067V22.067C491.52,9.88,481.639,0,469.453,0z"/>
  <g>
    <rect x="35.748" y="91.361" style="fill:#FFFFFF;" width="420.045" height="364.39"/>
    <rect x="35.748" y="31.703" style="fill:#FFFFFF;" width="300.339" height="25.405"/>
  </g>
  <rect x="35.748" y="442.317" style="fill:#EBF0F3;" width="420.045" height="13.435"/>
  <circle style="fill:#FCD462;" cx="363.827" cy="44.406" r="12.703"/>
  <circle style="fill:#44C4A1;" cx="403.456" cy="44.406" r="12.703"/>
  <circle style="fill:#E56353;" cx="443.085" cy="44.406" r="12.703"/>
  <rect x="145.07" y="222.413" style="fill:#27A2DB;" width="34.412" height="13.404"/>
  <rect x="202.429" y="222.413" style="fill:#E56353;" width="34.412" height="13.404"/>
  <rect x="265.221" y="222.413" style="fill:#44C4A1;" width="73.651" height="13.404"/>
  <rect x="145.07" y="311.337" style="fill:#FCD462;" width="57.354" height="13.404"/>
  <rect x="219.935" y="311.337" style="fill:#27A2DB;" width="34.412" height="13.404"/>
  <rect x="271.872" y="311.337" style="fill:#D5D6DB;" width="67.021" height="13.404"/>
  <g>
    <rect x="145.07" y="266.854" style="fill:#64798A;" width="34.412" height="13.404"/>
    <rect x="202.429" y="266.854" style="fill:#64798A;" width="74.86" height="13.404"/>
  </g>
  <rect x="298.394" y="266.854" style="fill:#E56353;" width="40.448" height="13.404"/>
  <g>
    <polygon style="fill:#64798A;" points="127.242,369.989 50.678,273.562 127.242,177.143 141.241,188.262 73.508,273.562 
      141.241,358.871   "/>
    <polygon style="fill:#64798A;" points="364.274,369.989 350.276,358.871 418.008,273.562 350.276,188.262 364.274,177.143 
      440.839,273.562   "/>
  </g>
</symbol>

</svg>